<svg width="97" height="65" viewBox="0 0 97 65" fill="none" xmlns="http://www.w3.org/2000/svg">
<path d="M0.910998 49.8955L54.4896 64.9627C54.5777 64.9874 54.6688 65 54.7603 65H96C96.5523 65 97 64.5523 97 64V11.7104C97 11.285 96.7309 10.9062 96.3292 10.7661L67.6456 0.764786C66.8169 0.475833 66.0445 1.31831 66.4042 2.11886L73.8589 18.7109C74.227 19.5301 73.4124 20.3816 72.5777 20.0501L47.7904 10.2077C46.8201 9.82245 45.9827 10.995 46.662 11.7878L57.327 24.2343C57.9784 24.9945 57.2325 26.134 56.2752 25.8413L24.7002 16.1846C23.8804 15.9339 23.1458 16.7635 23.4939 17.5469L24.3797 19.5407C24.4501 19.6992 24.5606 19.8367 24.7002 19.9397L50.7985 39.1761C51.0893 39.3905 51.1497 39.8008 50.9329 40.0899C50.7501 40.3338 50.7611 40.6719 50.9594 40.9033L51.0416 40.9992C51.4632 41.4912 51.163 42.2545 50.5192 42.3275L1.06895 47.9393C-0.0213952 48.063 -0.145373 49.5985 0.910998 49.8955Z" fill="#00FF93"/>
</svg>
